# xmcd
#
# Track frame offsets: 
#        150
#        21737
#        45695
#        64957
#        87180
#        99895
#        119540
#        140365
#        159165
#
# Disc length: 2206 seconds
#
# Revision: 37
# Processed by: cddbd v1.5.2PL0 Copyright (c) Steve Scherf et al.
# Submitted via: ExactAudioCopy v1.0b3
#
DISCID=74089c09
DTITLE=Santana - Abraxas
DYEAR=1970
DGENRE=Latin
TTITLE0=Singing Winds, Crying Beasts
TTITLE1=Black Magic Woman - Gypsy Queen
TTITLE2=Oye Como Va
TTITLE3=Incident At Neshabur
TTITLE4=Se A Cabo
TTITLE5=Mother's Daughter
TTITLE6=Samba Pa Ti
TTITLE7=Hope You're Feeling Better
TTITLE8=El Nicoya
EXTD=YEAR: 1970
EXTT0=
EXTT1=
EXTT2=
EXTT3=
EXTT4=
EXTT5=
EXTT6=
EXTT7=
EXTT8=
PLAYORDER=
